<?xml version="1.0" encoding="UTF-8" standalone="no"?>
<svg
        viewBox="0 0 24 24"
        version="1.1"
        id="svg6"
        sodipodi:docname="card-search-outline.svg"
        inkscape:version="1.1 (c68e22c387, 2021-05-23)"
        xmlns:inkscape="http://www.inkscape.org/namespaces/inkscape"
        xmlns:sodipodi="http://sodipodi.sourceforge.net/DTD/sodipodi-0.dtd"
        xmlns="http://www.w3.org/2000/svg"
>
    <defs
            id="defs10"/>
    <sodipodi:namedview
            id="namedview8"
            pagecolor="#505050"
            bordercolor="#eeeeee"
            borderopacity="1"
            inkscape:pageshadow="0"
            inkscape:pageopacity="0"
            inkscape:pagecheckerboard="0"
            showgrid="false"
            inkscape:zoom="31.375"
            inkscape:cx="11.984064"
            inkscape:cy="11.984064"
            inkscape:window-width="2560"
            inkscape:window-height="1494"
            inkscape:window-x="-11"
            inkscape:window-y="-11"
            inkscape:window-maximized="1"
            inkscape:current-layer="svg6"/>
    <title
            id="title2">card-search-outline
    </title>
    <path
            d="M11.5 16C12.37 16 13.19 15.74 13.88 15.3L16.32 17.74L17.74 16.32L15.3 13.89C15.74 13.19 16 12.38 16 11.5C16 9 14 7 11.5 7S7 9 7 11.5 9 16 11.5 16M11.5 9C12.88 9 14 10.12 14 11.5S12.88 14 11.5 14 9 12.88 9 11.5 10.12 9 11.5 9M20 4H4C2.9 4 2 4.9 2 6V18C2 19.1 2.9 20 4 20H20C21.1 20 22 19.1 22 18V6C22 4.9 21.1 4 20 4M20 18H4V6H20V18Z"
            id="path4"
            style="fill:#ffffff"/>
</svg>
