<?xml version="1.0" encoding="UTF-8" standalone="no"?>
<svg
        viewBox="0 0 24 24"
        version="1.1"
        id="svg4"
        sodipodi:docname="refresh.svg"
        inkscape:version="1.1 (c68e22c387, 2021-05-23)"
        xmlns:inkscape="http://www.inkscape.org/namespaces/inkscape"
        xmlns:sodipodi="http://sodipodi.sourceforge.net/DTD/sodipodi-0.dtd"
        xmlns="http://www.w3.org/2000/svg"
>
  <defs
          id="defs8"/>
  <sodipodi:namedview
          id="namedview6"
          pagecolor="#505050"
          bordercolor="#eeeeee"
          borderopacity="1"
          inkscape:pageshadow="0"
          inkscape:pageopacity="0"
          inkscape:pagecheckerboard="0"
          showgrid="false"
          inkscape:zoom="31.375"
          inkscape:cx="12"
          inkscape:cy="12"
          inkscape:window-width="1920"
          inkscape:window-height="1129"
          inkscape:window-x="-8"
          inkscape:window-y="-8"
          inkscape:window-maximized="1"
          inkscape:current-layer="svg4"/>
  <path
          d="M17.65,6.35C16.2,4.9 14.21,4 12,4A8,8 0 0,0 4,12A8,8 0 0,0 12,20C15.73,20 18.84,17.45 19.73,14H17.65C16.83,16.33 14.61,18 12,18A6,6 0 0,1 6,12A6,6 0 0,1 12,6C13.66,6 15.14,6.69 16.22,7.78L13,11H20V4L17.65,6.35Z"
          id="path2"
          style="fill:#ffffff"/>
</svg>
